<svg xmlns:cc="http://creativecommons.org/ns#"
     xmlns:dc="http://purl.org/dc/elements/1.1/"
     xmlns:gpa="https://www.gtk.org/grappa"
     xmlns:rdf="http://www.w3.org/1999/02/22-rdf-syntax-ns#"
     width="16"
     height="16"
     viewBox="0 0 16 16"
     gpa:version="1"
     gpa:state="1">
  <path
      id="github-mark"
      d="M 8 1.25 C 4.272 1.25 1.25 4.272 1.25 8 C 1.25 10.984 3.185 13.514 5.868 14.407 C 6.205 14.469 6.328 14.264 6.328 14.087 C 6.328 13.928 6.322 13.4 6.319 12.839 C 4.447 13.246 4.052 11.947 4.052 11.947 C 3.746 11.17 3.305 10.963 3.305 10.963 C 2.694 10.545 3.351 10.554 3.351 10.554 C 4.026 10.602 4.382 11.247 4.382 11.247 C 4.983 12.277 5.959 11.979 6.344 11.807 C 6.405 11.371 6.579 11.073 6.771 10.904 C 5.276 10.734 3.704 10.156 3.704 7.572 C 3.704 6.836 3.967 6.234 4.397 5.762 C 4.327 5.591 4.096 4.902 4.463 3.97 C 4.463 3.97 5.03 3.788 6.318 4.659 C 6.856 4.51 7.432 4.435 8 4.432 C 8.568 4.435 9.145 4.51 9.685 4.659 C 10.971 3.788 11.536 3.97 11.536 3.97 C 11.905 4.902 11.674 5.591 11.605 5.762 C 12.037 6.234 12.296 6.836 12.296 7.572 C 12.296 10.163 10.72 10.732 9.22 10.898 C 9.462 11.107 9.678 11.519 9.678 12.15 C 9.678 13.055 9.671 13.785 9.671 14.087 C 9.671 14.266 9.792 14.472 10.134 14.406 C 12.816 13.512 14.75 10.983 14.75 8 C 14.75 4.272 11.728 1.25 8 1.25 Z"
      fill="rgb(0,0,0)"
      stroke="none"
      class="foreground-fill"
      gpa:fill="foreground" />
  <metadata>
    <rdf:RDF>
      <cc:Work>
        <cc:license rdf:resource="https://creativecommons.org/publicdomain/zero/1.0/" />
        <dc:subject>
          <rdf:Bag>
            <rdf:li>github code forge hosting</rdf:li>
          </rdf:Bag>
        </dc:subject>
      </cc:Work>
    </rdf:RDF>
  </metadata>
</svg>
